<?xml version="1.0" encoding="utf-8"?>
<!-- Generator: Adobe Illustrator 16.0.0, SVG Export Plug-In . SVG Version: 6.00 Build 0)  -->
<!DOCTYPE svg PUBLIC "-//W3C//DTD SVG 1.1//EN" "http://www.w3.org/Graphics/SVG/1.1/DTD/svg11.dtd">
<svg version="1.1" id="Layer_1" xmlns="http://www.w3.org/2000/svg" xmlns:xlink="http://www.w3.org/1999/xlink" x="0px" y="0px"
	 width="200px" height="200px" viewBox="0 0 200 200" enable-background="new 0 0 200 200" xml:space="preserve">
<g>
	<g>
		<path fill="#FFFFFF" d="M151,119.865v0.241c0.015-0.015,0.029-0.027,0.044-0.042C151.11,119.998,151,119.932,151,119.865z"/>
		<path fill="#FFFFFF" d="M98.695,11.171c-47.315,0-85.671,38.356-85.671,85.671c0,47.314,38.356,85.671,85.671,85.671
			c47.314,0,85.671-38.356,85.671-85.671C184.366,49.527,146.01,11.171,98.695,11.171z M87.537,120.064
			c-5.446,5.445-12.02,8.168-19.723,8.168c-7.704,0-14.24-2.723-19.685-8.168c-5.446-5.445-8.13-12.02-8.13-19.723V52.429
			c0-1.096,0.352-2.033,1.132-2.814c0.78-0.78,1.699-1.17,2.795-1.17s2.078,0.391,2.858,1.17C47.565,50.396,48,51.333,48,52.429
			v28.389c0-0.066,0.079-0.132,0.146-0.199c5.445-5.445,11.992-8.168,19.696-8.168c7.703,0,14.263,2.723,19.709,8.168
			c5.444,5.446,8.161,12.02,8.161,19.723S92.982,114.619,87.537,120.064z M159,128.232c0,5.81-1.864,10.857-6.048,15.141
			c-5.845,5.843-12.786,8.766-21.054,8.766s-15.25-2.923-21.06-8.766c-2.159-2.126-3.891-4.434-5.251-6.924
			c-0.398-0.598-0.584-1.295-0.584-2.092c0-1.096,0.397-2.033,1.179-2.813c0.779-0.78,1.721-1.171,2.816-1.171
			s2.044,0.382,2.841,1.146c0.332,0.364,0.614,0.763,0.848,1.195c0.996,1.793,2.275,3.469,3.836,5.029
			c4.283,4.283,9.445,6.426,15.489,6.426c6.043,0,10.963-2.143,15.246-6.426c2.656-3.188,3.741-6.358,3.741-9.512v-8.126
			c-5.438,5.416-11.876,8.126-19.557,8.126c-7.703,0-14.217-2.723-19.662-8.168s-8.138-12.02-8.138-19.723
			s2.737-14.277,8.183-19.723c5.445-5.445,12.027-8.168,19.73-8.168c7.702,0,14.053,2.723,19.499,8.168
			c5.445,5.446,7.944,12.02,7.944,19.723V128.232z"/>
	</g>
	<path fill="#FFFFFF" d="M67.814,80.419c-5.512,0-10.21,1.942-14.095,5.827s-5.827,8.583-5.827,14.095
		c0,5.512,1.942,10.209,5.827,14.094s8.583,5.828,14.095,5.828c5.511,0,10.21-1.943,14.095-5.828s5.827-8.582,5.827-14.094
		c0-5.511-1.942-10.21-5.827-14.095S73.326,80.419,67.814,80.419z"/>
	<path fill="#FFFFFF" d="M131.564,80.419c-5.512,0-10.21,1.942-14.095,5.827s-5.827,8.583-5.827,14.095
		c0,5.512,1.942,10.209,5.827,14.094s8.583,5.828,14.095,5.828c5.511,0,10.21-1.943,14.095-5.828s5.827-8.582,5.827-14.094
		c0-5.511-1.942-10.21-5.827-14.095S137.075,80.419,131.564,80.419z"/>
</g>
</svg>
